HIERARCHY
ROOT Hips
{
  OFFSET 39.0898 99.1502 -116.129
  CHANNELS 6 Xposition Yposition Zposition Zrotation Xrotation Yrotation
  JOINT RightUpLeg
  {
    OFFSET -8.9458 -8.66707 0.101652
    CHANNELS 3 Zrotation Xrotation Yrotation
    JOINT RightLeg
    {
      OFFSET 0 -44.4227 1.3727
      CHANNELS 3 Zrotation Xrotation Yrotation
      JOINT RightFoot
      {
        OFFSET 0.253549 -42.0924 -1.46059
        CHANNELS 3 Zrotation Xrotation Yrotation
        JOINT RightToes
        {
          OFFSET 0.04 -4.41509 8.4991
          CHANNELS 3 Zrotation Xrotation Yrotation
          End Site
          {
            OFFSET -0.08 -0.137448 9.77979
          }
        }
      }
    }
  }
  JOINT Spine
  {
    OFFSET 0 11.8905 0
    CHANNELS 3 Zrotation Xrotation Yrotation
    JOINT Spine1
    {
      OFFSET 0 25.6574 0.127663
      CHANNELS 3 Zrotation Xrotation Yrotation
      JOINT HEad
      {
        OFFSET 0 8.73416 0.011341
        CHANNELS 3 Zrotation Xrotation Yrotation
        End Site
        {
          OFFSET -0.29 12.7742 2.51395
        }
      }
      JOINT LeftShoulder1
      {
        OFFSET 8.99 -0.362252 -0.22
        CHANNELS 3 Zrotation Xrotation Yrotation
        JOINT LeftArm
        {
          OFFSET 10.2827 -0.00338 0.322123
          CHANNELS 3 Zrotation Xrotation Yrotation
          JOINT LeftForeArm
          {
            OFFSET 32.7669 0.099144 -1.42434
            CHANNELS 3 Zrotation Xrotation Yrotation
            JOINT LeftHand
            {
              OFFSET 27.5643 0.085362 1.02216
              CHANNELS 3 Zrotation Xrotation Yrotation
              End Site
              {
                OFFSET 16.7443 -0.6 1.50291
              }
            }
          }
        }
      }
      JOINT RightShoulder
      {
        OFFSET -8.99 -0.362252 -0.22
        CHANNELS 3 Zrotation Xrotation Yrotation
        JOINT RightArm
        {
          OFFSET -10.2827 -0.00338 0.322123
          CHANNELS 3 Zrotation Xrotation Yrotation
          JOINT RightForeArm
          {
            OFFSET -32.8971 0.099144 -1.42434
            CHANNELS 3 Zrotation Xrotation Yrotation
            JOINT RightHand
            {
              OFFSET -27.4921 0.085362 1.02216
              CHANNELS 3 Zrotation Xrotation Yrotation
              End Site
              {
                OFFSET -16.6312 -0.6 1.50291
              }
            }
          }
        }
      }
    }
  }
  JOINT LeftUpLeg
  {
    OFFSET 8.9458 -8.66707 0.101652
    CHANNELS 3 Zrotation Xrotation Yrotation
    JOINT LeftLeg
    {
      OFFSET 0 -44.4227 1.3727
      CHANNELS 3 Zrotation Xrotation Yrotation
      JOINT LeftFoot
      {
        OFFSET -0.253549 -42.0924 -1.46059
        CHANNELS 3 Zrotation Xrotation Yrotation
        JOINT LeftToes
        {
          OFFSET -0.04 -4.41509 8.4991
          CHANNELS 3 Zrotation Xrotation Yrotation
          End Site
          {
            OFFSET 0.08 -0.047448 9.77979
          }
        }
      }
    }
  }
}
MOTION
Frames:	12
Frame Time:	0.0166667
38.7872 95.6581 -101.314 -6.87042 -3.74298 -66.1245 -16.0014 -3.86506 -0.25708 24.1246 41.5525 -36.5079 -2.69451 -16.3172 -0.735029 0.0462048 0.000533403 0.662642 0.629752 8.10677 2.87081 2.41501 16.0754 5.70425 -5.3233 3.21231 10.0372 -1.98785e-015 2.38542e-015 3.18055e-015 -81.3354 -50.3232 -16.6184 -39.1654 59.1526 -86.7226 20.5041 11.5828 -42.0206 20.4078 4.64174 18.0066 77.7109 -34.0512 39.2486 -20.3912 46.7554 157.976 -4.46801 21.5243 -56.2411 18.6669 -31.537 1.72639 -1.92055 52.9595 -4.20127 -10.5043 -6.60131 -0.117665 -1.34724e-009 1.55915e-007 -4.87205e-009 
39.1204 95.3251 -102.125 -7.49781 -3.7467 -65.5838 -15.4635 -3.94602 -0.358616 24.8959 42.3483 -37.5039 -2.80955 -16.3927 -0.725466 0.0462048 0.000533403 0.662642 0.850514 8.54484 2.88649 2.75114 16.9913 5.68959 -5.49304 2.97516 9.89682 2.38542e-015 1.19271e-015 -3.18055e-015 -81.2174 -51.0275 -17.553 -40.5604 59.3303 -85.044 20.3636 11.6363 -42.0578 20.7196 4.68641 17.9536 78.1913 -33.7706 39.1806 -20.7918 46.1472 158.45 -3.86531 21.2723 -56.9181 18.2409 -31.5126 2.01504 -2.36917 56.7225 -3.19481 -10.4834 -6.44783 -0.117629 -1.34724e-009 1.55915e-007 -4.87206e-009 
39.4571 94.9209 -102.939 -8.11335 -3.75269 -65.0127 -15.0956 -4.05506 -0.606459 25.8866 43.0436 -38.6241 -3.23323 -15.8976 -0.763244 0.0462048 0.000533403 0.662642 1.09595 8.96119 2.92171 3.10903 17.8673 5.71444 -5.66904 2.49785 9.71527 2.38542e-015 -3.97569e-016 -0 -81.2094 -51.8366 -18.4642 -42.0823 59.4219 -83.3206 20.073 11.7467 -42.1374 20.9416 4.71626 17.9082 78.8166 -33.5373 39.3184 -21.1483 45.6055 158.912 -3.37065 21.0608 -57.5323 17.6082 -31.1597 2.3592 -2.02342 59.7132 -3.23673 -10.5863 -5.98876 -0.122183 -1.34724e-009 1.55915e-007 -4.87205e-009 
39.7873 94.5024 -103.757 -8.65084 -3.75269 -64.4274 -14.8596 -4.20142 -0.995009 26.9469 43.5531 -39.7842 -3.94434 -14.8794 -0.842558 0.0462048 0.000533403 0.662642 1.33154 9.32916 2.97602 3.46032 18.644 5.77736 -5.83269 1.83857 9.51541 6.62086e-032 1.19271e-015 -3.18055e-015 -81.3185 -52.621 -19.2653 -43.3101 59.4192 -82.0014 19.725 11.8849 -42.204 21.0607 4.73368 17.89 79.5923 -33.4631 39.7197 -21.4302 45.3788 159.282 -3.12975 20.9579 -57.9372 16.8336 -30.4754 2.74096 -1.02462 61.821 -3.97087 -10.7136 -5.72884 -0.175137 -1.34724e-009 1.55915e-007 -4.87205e-009 
40.0926 94.1357 -104.583 -9.03933 -3.7485 -63.8409 -14.7016 -4.3922 -1.48433 27.9021 43.8144 -40.8928 -4.85864 -13.476 -0.950327 0.0462048 0.000533403 0.662642 1.50951 9.62073 3.0504 3.76315 19.2589 5.87645 -5.95327 1.06801 9.31228 7.95139e-016 1.19271e-015 -0 -81.4716 -53.2561 -19.8294 -43.8685 59.3286 -81.4908 19.405 12.0177 -42.2369 21.0803 4.7424 17.9116 80.4855 -33.5951 40.3648 -21.6306 45.588 159.52 -3.20495 20.9965 -58.0568 15.9789 -29.4967 3.12442 0.3029 62.9654 -4.87836 -10.7079 -6.0728 -0.307341 -1.34724e-009 1.55915e-007 -4.87205e-009 
40.3504 93.887 -105.421 -9.21608 -3.75432 -63.2578 -14.5631 -4.63218 -2.00565 28.6008 43.8025 -41.8652 -5.84795 -11.9205 -1.07535 0.0462048 0.000533403 0.662642 1.58296 9.8118 3.14575 3.96752 19.6596 6.01055 -5.99579 0.251774 9.10938 -2.38542e-015 -2.38542e-015 -0 -81.5661 -53.6581 -20.0528 -43.5581 59.1605 -82.0037 19.177 12.1144 -42.2491 21.0171 4.74668 17.9783 81.4313 -33.9067 41.169 -21.7554 46.2077 159.621 -3.57377 21.1658 -57.8838 15.0899 -28.2983 3.47073 1.60296 63.1243 -5.50988 -10.4692 -7.23944 -0.529404 -1.34724e-009 1.55915e-007 -4.87204e-009 
40.5404 93.8109 -106.28 -9.13728 -3.79367 -62.671 -14.3902 -4.92696 -2.48145 28.9461 43.5399 -42.6296 -6.76394 -10.5187 -1.21687 0.0462048 0.000533403 0.662642 1.52472 9.8864 3.25989 4.02364 19.8123 6.17992 -5.93526 -0.560184 8.89829 -1.59028e-015 -1.59028e-015 -0 -81.538 -53.8101 -19.9283 -42.4383 58.9233 -83.4701 19.0722 12.1567 -42.2659 20.8952 4.75066 18.0896 82.345 -34.3145 42.0111 -21.8156 47.0961 159.604 -4.15254 21.4235 -57.4643 14.1998 -26.9799 3.74887 2.65457 62.3418 -5.70092 -10.055 -9.22004 -0.827356 -1.34724e-009 1.55915e-007 -4.87203e-009 
40.6497 93.9399 -107.169 -8.78256 -3.89282 -62.0595 -14.1432 -5.28511 -2.85111 28.9031 43.0923 -43.1265 -7.46486 -9.58883 -1.38586 0.0462048 0.000533403 0.662642 1.3386 9.83869 3.38597 3.8911 19.7064 6.38643 -5.77189 -1.33442 8.66117 3.18055e-015 0 3.18055e-015 -81.4031 -53.7673 -19.5804 -40.837 58.6368 -85.5206 19.072 12.1501 -42.3013 20.7385 4.75773 18.2426 83.14 -34.715 42.7694 -21.8235 48.0595 159.503 -4.83006 21.7148 -56.8829 13.3392 -25.6537 3.94151 3.41074 60.7173 -5.59367 -9.6739 -11.7421 -1.17518 -1.34724e-009 1.55915e-007 -4.87204e-009 
40.6771 94.2813 -108.099 -8.15239 -4.07358 -61.3925 -13.804 -5.71409 -3.09276 28.4771 42.548 -43.3018 -7.83204 -9.38824 -1.59655 0.0462048 0.000533403 0.662642 1.05466 9.67227 3.51487 3.54566 19.3507 6.633 -5.53964 -2.049 8.37599 -3.97569e-015 -2.38542e-015 3.18055e-015 -81.2493 -53.6373 -19.242 -39.2905 58.3534 -87.5607 19.0785 12.1382 -42.3498 20.5651 4.77034 18.4344 83.7454 -35.0198 43.3554 -21.7966 48.9121 159.365 -5.49323 21.9889 -56.2503 12.5431 -24.4384 4.0501 3.90653 58.3896 -5.4644 -9.56392 -14.2776 -1.55201 -1.34724e-009 1.55915e-007 -4.87204e-009 
40.6295 94.8185 -109.079 -7.2605 -4.34747 -60.6349 -13.3804 -6.21107 -3.23077 27.6837 41.9889 -43.104 -7.77799 -10.0627 -1.85364 0.0462048 0.000533403 0.662642 0.712038 9.39698 3.6399 2.98358 18.7669 6.92139 -5.30247 -2.68709 8.0229 2.38542e-015 1.59028e-015 -0 -81.1961 -53.5397 -19.1822 -38.4405 58.1541 -88.8961 18.8797 12.2145 -42.4045 20.3841 4.78938 18.6625 84.123 -35.1782 43.7344 -21.7561 49.5139 159.239 -6.03878 22.2062 -55.6959 11.8415 -23.4464 4.09869 4.16229 55.5237 -5.52925 -9.84338 -16.1877 -1.93791 -1.34724e-009 1.55915e-007 -4.87204e-009 
40.518 95.513 -110.105 -6.12891 -4.71042 -59.7563 -12.9056 -6.75791 -3.3247 26.5452 41.4705 -42.5032 -7.25171 -11.6333 -2.14188 0.0462048 0.000533403 0.662642 0.34147 9.02546 3.76033 2.22344 17.9834 7.24987 -5.13703 -3.23423 7.58854 -2.38542e-015 -7.95139e-016 -0 -81.3538 -53.5561 -19.6316 -38.9545 58.0962 -88.8419 18.1311 12.5248 -42.4878 20.1964 4.8144 18.9254 84.2665 -35.1851 43.9255 -21.7236 49.7729 159.174 -6.37441 22.337 -55.3591 11.2423 -22.7549 4.13563 4.17542 52.2939 -5.87993 -10.4526 -16.9832 -2.29482 -1.34724e-009 1.55915e-007 -4.87205e-009 
40.3529 96.305 -111.164 -4.78876 -5.13913 -58.736 -12.4313 -7.32655 -3.4485 25.1109 41.0197 -41.5278 -6.23933 -14.0137 -2.42284 0.0462048 0.000533403 0.662642 -0.0413051 8.57152 3.88092 1.30577 17.0311 7.61118 -5.10687 -3.68305 7.06595 -2.38542e-015 -2.38542e-015 -0 -81.7934 -53.6891 -20.7237 -41.4957 58.1243 -86.7772 16.3751 13.2587 -42.6505 19.9979 4.84384 19.2204 84.1915 -35.074 43.982 -21.7087 49.6271 159.211 -6.42408 22.3597 -55.3715 10.7195 -22.3749 4.22548 3.97041 48.8564 -6.53146 -11.2224 -16.5336 -2.57331 -1.34724e-009 1.55915e-007 -4.87204e-009 
